<svg xmlns="http://www.w3.org/2000/svg" width="16" height="16" viewBox="0 0 16 16" fill="currentColor">
<path d="m9.5 8a1.5 1.5 0 01-1.5 1.5 1.5 1.5 0 01-1.5-1.5 1.5 1.5 0 011.5-1.5 1.5 1.5 0 011.5 1.5zm-1.5-3c-1.8211073.0035288-3.4099601 1.2367163-3.8652344 3 .4552743 1.7632837 2.0441271 2.996471 3.8652344 3 1.8211071-.003529 3.40996-1.2367164 3.869141-3-.452098-1.7660967-2.0451242-3.000029-3.869141-3zm0-2c-2.9248413.0038401-5.4207316 2.1160647-5.9082031 5 .4874715 2.883935 2.9833618 4.99616 5.9082031 5 2.924841-.00384 5.420732-2.116065 5.911133-5-.484914-2.8861167-2.984077-4.9990156-5.911133-5z" fill-rule="evenodd" />
</svg>