<svg xmlns="http://www.w3.org/2000/svg" width="16" height="16" viewBox="0 0 16 16" fill="currentColor">
<path d="m8 4c1.1045695 0 2 .8954305 2 2s-.8954305 2-2 2c-.5522847 0-1 .4477153-1 1v1c0 .552285.4477153 1 1 1s1-.447715 1-1v-.1347656c1.763284-.4552743 2.996471-2.0441271 3-3.8652344 0-2.209139-1.790861-4-4-4s-4 1.790861-4 4c0 .5522847.4477153 1 1 1s1-.4477153 1-1c0-1.1045695.8954305-2 2-2zm1.25 9a1.25 1.25 0 01-1.25 1.25 1.25 1.25 0 01-1.25-1.25 1.25 1.25 0 011.25-1.25 1.25 1.25 0 011.25 1.25z" fill-rule="evenodd" />
</svg>