<svg xmlns="http://www.w3.org/2000/svg" width="16" height="16" viewBox="0 0 16 16">
<path d="m8 0a8 8 0 00-8 8 8 8 0 008 8 8 8 0 008-8 8 8 0 00-8-8zm0 2a1.5 6 0 011.2597656 2.75h-2.5195312a1.5 6 0 011.2597656-2.75zm2.574219.5800781a6 6 0 012.466797 2.1699219h-1.84375a3.5 8 0 00-.623047-2.1699219zm-5.1425784.0097657a3.5 8 0 00-.625 2.1601562h-1.8300781a6 6 0 012.4550781-2.1601562zm-3.2832031 4.1601562h2.3984375a3.5 8 0 00-.046875 1.25 3.5 8 0 00.046875 1.25h-2.3984375a6 6 0 01-.1484375-1.25 6 6 0 01.1484375-1.25zm4.3886719 0h2.9296875a1.5 6 0 01.0332031 1.25 1.5 6 0 01-.0371094 1.25h-2.9257812a1.5 6 0 01-.0371094-1.25 1.5 6 0 01.0371094-1.25zm4.9199216 0h2.410157a6 6 0 01.132812 1.25 6 6 0 01-.148438 1.25h-2.398437a3.5 8 0 00.046875-1.25 3.5 8 0 00-.042969-1.25zm-8.4804685 4.5h1.8300781a3.5 8 0 00.625 2.160156 6 6 0 01-2.4550781-2.160156zm3.7636719 0h2.5195312a1.5 6 0 01-1.2597656 2.75 1.5 6 0 01-1.2597656-2.75zm4.4531246 0h1.830079a6 6 0 01-2.455079 2.160156 3.5 8 0 00.625-2.160156z" fill-rule="evenodd" fill="white" />
</svg>