<svg xmlns="http://www.w3.org/2000/svg" width="16" height="16" viewBox="0 0 16 16">
<path d="m5 10h4c.554 0 1 .446 1 1s-.446 1-1 1h-4c-.554 0-1-.446-1-1s.446-1 1-1zm0-3h6c.554 0 1 .446 1 1s-.446 1-1 1h-6c-.554 0-1-.446-1-1s.446-1 1-1zm0-3h6c.554 0 1 .446 1 1s-.446 1-1 1h-6c-.554 0-1-.446-1-1s.446-1 1-1zm-2-2h10c.554 0 1 .446 1 1v10c0 .554-.446 1-1 1h-10c-.554 0-1-.446-1-1v-10c0-.554.446-1 1-1zm0-2h10c1.662 0 3 1.338 3 3v10c0 1.662-1.338 3-3 3h-10c-1.662 0-3-1.338-3-3v-10c0-1.662 1.338-3 3-3z" fill-rule="evenodd" fill="black" />
</svg>